Coordinates
version=1
nRows=14
nColumns=28
inDegrees=yes

Units are S.I. units (second, meters, Newtons, ...)
Angles are in degrees.

endheader
time	pelvis_tilt	pelvis_list	pelvis_rotation	pelvis_tx	pelvis_ty	pelvis_tz	hip_flexion_r	hip_adduction_r	hip_rotation_r	knee_angle_r	ankle_angle_r	subtalar_angle_r	mtp_angle_r	hip_flexion_l	hip_adduction_l	hip_rotation_l	knee_angle_l	socket_flexion	socket_adduction	socket_rotation	socket_tx	socket_ty	socket_tz	foot_flex	lumbar_extension	lumbar_bending	lumbar_rotation
      0.26666667	     -1.26299862	      2.20879282	     -2.53887521	     -0.39187730	      0.98103072	      0.24259397	     15.39384085	     -3.46302488	      2.03421604	    -63.99229115	    -15.51279245	    -17.10561326	     12.94449110	     12.66406031	      3.29820302	     -6.15011638	    -25.45406944	     -1.47287981	     -0.40801444	      9.55949615	      0.00765451	     -0.00634025	     -0.02000000	      4.66045550	     -6.23978287	     -4.33309411	     -2.87896320
      0.27083333	     -1.09451133	      2.05914193	     -2.58452776	     -0.38618137	      0.98229464	      0.24273184	     15.96586276	     -3.22846899	      2.19123190	    -64.02935183	    -14.59711275	    -17.67733238	     12.64332895	     11.81078727	      3.12652678	     -6.26001611	    -25.28815409	     -1.76860383	     -0.45422778	      9.76680814	      0.00645296	     -0.00644146	     -0.02000000	      4.68873137	     -6.45338985	     -4.14225145	     -3.13633222
      0.27500000	     -1.03474779	      1.91889470	     -2.53120051	     -0.38073407	      0.98325544	      0.24243668	     16.72189946	     -3.21830685	      2.01074580	    -64.07071759	    -14.33926980	    -17.83719179	     12.58520964	     11.22314968	      3.01660554	     -6.28336105	    -25.15479054	     -1.91414671	     -0.51761882	      9.92181055	      0.00608716	     -0.00633399	     -0.02000000	      4.74409787	     -6.58826217	     -3.97931940	     -3.19756453
      0.27916667	     -0.40856431	      1.62729719	     -2.77541112	     -0.37426054	      0.98549167	      0.24311571	     16.56432894	     -2.74732266	      2.28781411	    -63.70275052	    -13.30552715	    -18.83897487	     11.02382424	      9.49918198	      2.59284179	     -6.89469049	    -25.04027332	     -2.66993509	     -0.61215366	     10.38028379	      0.00273840	     -0.00677173	     -0.02000000	      4.79961489	     -7.23442706	     -3.62029978	     -3.65161779
      0.28333333	     -0.46295638	      1.48281059	     -2.69346304	     -0.36839947	      0.98638881	      0.24300988	     17.30151429	     -2.66075796	      2.13493569	    -63.53601695	    -12.57971255	    -19.17765541	     10.93845644	      8.90364933	      2.44189553	     -6.93046845	    -24.84622303	     -2.91797935	     -0.64477997	     10.55641326	      0.00175673	     -0.00676067	     -0.02000000	      4.75993147	     -7.15738853	     -3.47198477	     -3.71068617
      0.28750000	     -0.47338035	      1.30390552	     -2.67915840	     -0.36268822	      0.98731947	      0.24298046	     17.99016989	     -2.45710070	      2.13793527	    -63.32913696	    -11.73071757	    -19.60419501	     10.79995758	      8.26245780	      2.25495040	     -6.99245590	    -24.66034267	     -3.16588934	     -0.68426597	     10.70261956	      0.00074085	     -0.00678981	     -0.02000000	      4.77662333	     -7.15957868	     -3.26308495	     -3.90973560
      0.29166667	     -0.47389174	      1.13652851	     -2.64525225	     -0.35698376	      0.98827536	      0.24296354	     18.64729271	     -2.29211739	      2.07091759	    -63.05115856	    -11.06176318	    -19.96866980	     10.65637140	      7.60623612	      2.07314346	     -7.07618201	    -24.45366588	     -3.41979223	     -0.71247111	     10.85249210	     -0.00026568	     -0.00670721	     -0.02000000	      4.78308863	     -7.17492378	     -3.04604904	     -4.10613955
      0.29583333	     -0.44714317	      0.93658218	     -2.61902315	     -0.35121507	      0.98927116	      0.24294536	     19.22328875	     -2.05557288	      2.06674029	    -62.67475696	    -10.30251952	    -20.40419526	     10.45296054	      6.90010996	      1.86036157	     -7.16278784	    -24.24246977	     -3.68409230	     -0.75169209	     11.02247171	     -0.00130930	     -0.00668321	     -0.02000000	      4.77224192	     -7.22433318	     -2.80179027	     -4.36405132
      0.30000000	     -0.42434749	      0.74999330	     -2.57484258	     -0.34553689	      0.99023891	      0.24294861	     19.79601214	     -1.85676924	      1.99901261	    -62.26016482	     -9.67072942	    -20.78768425	     10.24522652	      6.19464584	      1.65833660	     -7.25030152	    -24.01279049	     -3.95342191	     -0.80472774	     11.20616692	     -0.00245483	     -0.00660502	     -0.02000000	      4.77130668	     -7.26392622	     -2.56300602	     -4.59467011
      0.30416667	     -0.39624088	      0.54890150	     -2.52075331	     -0.33982339	      0.99116874	      0.24289608	     20.32856367	     -1.63271177	      1.95703104	    -61.76966001	     -9.03061395	    -21.18319047	     10.01679582	      5.48806693	      1.44601237	     -7.33782599	    -23.78482703	     -4.21460228	     -0.85991175	     11.38970125	     -0.00351076	     -0.00656442	     -0.02000000	      4.75786256	     -7.31867409	     -2.31537122	     -4.84049126
      0.30833333	     -0.39773323	      0.39772053	     -2.40935266	     -0.33429388	      0.99199517	      0.24251159	     20.90349756	     -1.47697737	      1.94133946	    -61.27124820	     -8.56065251	    -21.47589276	      9.85689427	      4.86596028	      1.34088568	     -7.35873063	    -23.56395707	     -4.43518330	     -1.01414243	     11.57812657	     -0.00443584	     -0.00639842	     -0.02000000	      4.76077003	     -7.37026587	     -2.05393547	     -5.00776837
      0.31250000	     -0.39724194	      0.18040956	     -2.34501119	     -0.32839721	      0.99289456	      0.24259030	     21.36914810	     -1.21440573	      1.87273974	    -60.60738273	     -7.87168920	    -21.90212441	      9.62131912	      4.14113830	      1.08949044	     -7.47849278	    -23.29515440	     -4.71586556	     -1.02295598	     11.74014622	     -0.00562879	     -0.00631546	     -0.02000000	      4.72755039	     -7.36713846	     -1.81662682	     -5.28669593
      0.31666667	     -0.30409627	     -0.11218906	     -2.32974430	     -0.32272088	      0.99387539	      0.24285093	     21.73929686	     -0.85111765	      1.81625947	    -59.89773368	     -7.20349294	    -22.36020268	      9.24050948	      3.36396371	      0.74029904	     -7.60734341	    -23.05614390	     -4.97491126	     -1.03370445	     11.91953869	     -0.00653692	     -0.00624968	     -0.02000000	      4.69770495	     -7.49888310	     -1.51503683	     -5.64207336
      0.32083333	      0.03558608	     -0.55893596	     -2.26329328	     -0.31730503	      0.99515530	      0.24288012	     21.78199254	     -0.25015994	      1.87191004	    -59.08471745	     -6.62133135	    -22.94814399	      8.24938561	      2.33949742	      0.24718987	     -7.78120844	    -22.85472394	     -5.27096808	     -1.13244796	     12.26764849	     -0.00743773	     -0.00637523	     -0.02000000	      4.66466817	     -8.00596777	     -0.93472796	     -6.14948984
